<svg xmlns="http://www.w3.org/2000/svg" viewBox="0 0 138.6 114.12"><defs><style>.cls-1{fill:#fff;}.cls-2{fill:none;stroke:#43ab6c;stroke-miterlimit:10;stroke-width:2.93px;}.cls-3{fill:#989898;}</style></defs><g id="Capa_2" data-name="Capa 2"><g id="Capa_1-2" data-name="Capa 1"><path class="cls-1" d="M0,71.55c0-.32.16-.47.49-.47h11.9a.56.56,0,0,1,.38.12.45.45,0,0,1,.13.35v1.73a.48.48,0,0,1-.13.36.52.52,0,0,1-.38.13H2.9V79h7.55a.66.66,0,0,1,.42.13.43.43,0,0,1,.15.35v1.73a.43.43,0,0,1-.16.35.65.65,0,0,1-.41.13H2.9v5.5h9.6a.74.74,0,0,1,.49.15.56.56,0,0,1,.18.44v1.63a.42.42,0,0,1-.14.36.58.58,0,0,1-.38.12H.49A.43.43,0,0,1,0,89.42Z"/><path class="cls-1" d="M24.9,78.81A.25.25,0,0,1,25,79a.29.29,0,0,1,0,.16L20.5,89.61a.46.46,0,0,1-.2.22.56.56,0,0,1-.31.09H18.48a.56.56,0,0,1-.31-.09.46.46,0,0,1-.2-.22L13.52,79.17a.29.29,0,0,1,0-.16.25.25,0,0,1,.09-.2.33.33,0,0,1,.22-.08H16a.53.53,0,0,1,.3.09.5.5,0,0,1,.18.23l2.73,7.35L22,79.05a.58.58,0,0,1,.18-.23.53.53,0,0,1,.3-.09h2.24A.33.33,0,0,1,24.9,78.81Z"/><path class="cls-1" d="M34.14,79.21a5.46,5.46,0,0,1,2,2.16,6.19,6.19,0,0,1,.69,3,1.1,1.1,0,0,1-.36.84,1.25,1.25,0,0,1-.83.3H28.34a3.38,3.38,0,0,0,1.17,1.61,2.93,2.93,0,0,0,1.85.62,4.23,4.23,0,0,0,2.37-.87.52.52,0,0,1,.24-.08.33.33,0,0,1,.26.15l.45.64c.21.27.38.5.5.69a.44.44,0,0,1,.08.26.35.35,0,0,1-.13.27,5.7,5.7,0,0,1-3.81,1.48,5.8,5.8,0,0,1-3-.8,5.94,5.94,0,0,1-2.18-2.16,5.66,5.66,0,0,1-.81-3,5.86,5.86,0,0,1,5.91-5.91A5.49,5.49,0,0,1,34.14,79.21Zm-4.85,2.54a2.79,2.79,0,0,0-1.05,1.62H34a3,3,0,0,0-1-1.62,2.71,2.71,0,0,0-1.79-.61A3.16,3.16,0,0,0,29.29,81.75Z"/><path class="cls-1" d="M47.62,79a4,4,0,0,1,1.56,1.77,6.22,6.22,0,0,1,.54,2.68v6.08a.4.4,0,0,1-.09.27.41.41,0,0,1-.28.09H47.29A.39.39,0,0,1,47,89.8a.36.36,0,0,1-.1-.27V83.44a2.35,2.35,0,0,0-1.22-2.07,2.53,2.53,0,0,0-1.21-.31,2.58,2.58,0,0,0-1.29.33,2.53,2.53,0,0,0-1.29,2.23v5.92c0,.25-.12.38-.36.38H39.48a.34.34,0,0,1-.37-.38V79.09a.36.36,0,0,1,.1-.26.37.37,0,0,1,.28-.1h1.64a.32.32,0,0,1,.36.23l.22,1.16a4.45,4.45,0,0,1,3.51-1.74A4.56,4.56,0,0,1,47.62,79Z"/><path class="cls-1" d="M51.36,79.09a.31.31,0,0,1,.35-.35H53V75.56a.4.4,0,0,1,.3-.41l2.1-.83.14,0a.25.25,0,0,1,.2.09.36.36,0,0,1,.07.24v4.11h2.67a.31.31,0,0,1,.34.35v2c0,.24-.11.35-.34.35H55.78v8.17a.31.31,0,0,1-.34.35H53.33a.31.31,0,0,1-.35-.35V81.41H51.71a.3.3,0,0,1-.35-.35Z"/><path class="cls-1" d="M60,81.35a6.05,6.05,0,0,1,10.4,0,6,6,0,0,1,0,6,6,6,0,0,1-2.18,2.15,5.91,5.91,0,0,1-3,.79,6.05,6.05,0,0,1-3-.78A5.84,5.84,0,0,1,60,87.32a5.91,5.91,0,0,1,0-6Zm2.42,4.59a3.3,3.3,0,0,0,1.16,1.16,3.19,3.19,0,0,0,4.82-2.76A3.21,3.21,0,0,0,68,82.72a3.23,3.23,0,0,0-4.4-1.17,3.33,3.33,0,0,0-1.16,1.17,3.3,3.3,0,0,0,0,3.22Z"/><path class="cls-1" d="M82.51,89.76A3.26,3.26,0,0,1,84,90.93a3.12,3.12,0,0,1,.53,1.81A3.63,3.63,0,0,1,83.8,95a4.5,4.5,0,0,1-2,1.43,8.6,8.6,0,0,1-3,.49,17.68,17.68,0,0,1-2.68-.21,10.21,10.21,0,0,1-2.33-.6.48.48,0,0,1-.2-.17.44.44,0,0,1-.07-.24.45.45,0,0,1,0-.18l.6-1.51a.46.46,0,0,1,.16-.2.37.37,0,0,1,.23-.07l.15,0a11.24,11.24,0,0,0,1.92.47,13.83,13.83,0,0,0,2.18.18,6.22,6.22,0,0,0,2.4-.37c.58-.25.88-.61.88-1.07a.92.92,0,0,0-.44-.86,2.52,2.52,0,0,0-1.32-.26H76.9a5,5,0,0,1-2-.38,3.18,3.18,0,0,1-1.35-1.08,2.87,2.87,0,0,1-.48-1.66,3,3,0,0,1,.35-1.43,2.41,2.41,0,0,1,1-1,4.72,4.72,0,0,1-.77-1.39,5,5,0,0,1-.27-1.65A5.11,5.11,0,0,1,74,80.75,4.63,4.63,0,0,1,75.71,79a4.89,4.89,0,0,1,2.48-.63,5.54,5.54,0,0,1,.86.1,6.93,6.93,0,0,1,1,.26h3.47a.61.61,0,0,1,.39.13.51.51,0,0,1,.14.38v1.29a.49.49,0,0,1-.15.35.52.52,0,0,1-.38.15H82.38a4,4,0,0,1,.7,2.24,4.75,4.75,0,0,1-.63,2.46,4.55,4.55,0,0,1-1.76,1.72,5.16,5.16,0,0,1-2.52.61,5.06,5.06,0,0,1-2-.42.86.86,0,0,0-.4.35,1,1,0,0,0-.15.54.64.64,0,0,0,.37.58,1.68,1.68,0,0,0,.94.23h3.35A5.77,5.77,0,0,1,82.51,89.76Zm-5.43-8.48a2.2,2.2,0,0,0-.81.82,2.35,2.35,0,0,0,0,2.28,2.22,2.22,0,0,0,.8.81,2.19,2.19,0,0,0,1.13.29,2.31,2.31,0,0,0,1.17-.29,2.15,2.15,0,0,0,.82-.79,2.2,2.2,0,0,0,.3-1.13,2.32,2.32,0,0,0-.3-1.17,2.15,2.15,0,0,0-.82-.82A2.22,2.22,0,0,0,78.2,81,2.08,2.08,0,0,0,77.08,81.28Z"/><path class="cls-1" d="M95.2,79.67a.39.39,0,0,1-.07.23l-1,1.5a.31.31,0,0,1-.28.17.25.25,0,0,1-.18-.07l-.1-.08a2.5,2.5,0,0,0-.83-.42,3.09,3.09,0,0,0-.93-.14,2.84,2.84,0,0,0-2.46,1.36A2.65,2.65,0,0,0,89,83.6v5.94c0,.25-.12.38-.36.38H86.58c-.24,0-.36-.13-.36-.38V79.09a.33.33,0,0,1,.1-.26.33.33,0,0,1,.27-.1h1.64c.21,0,.33.08.36.23l.23,1.27a4.29,4.29,0,0,1,1.52-1.35,4,4,0,0,1,1.92-.5,4.54,4.54,0,0,1,1.57.27,3.28,3.28,0,0,1,1.24.78A.27.27,0,0,1,95.2,79.67Z"/><path class="cls-1" d="M103.48,78.92a4.26,4.26,0,0,1,1.8,1.51,4.19,4.19,0,0,1,.63,2.31v6.79a.39.39,0,0,1-.09.28.37.37,0,0,1-.27.11H104a.28.28,0,0,1-.19-.07.33.33,0,0,1-.11-.15l-.19-1.14a4.15,4.15,0,0,1-1.57,1.25,5.64,5.64,0,0,1-2.36.46,5,5,0,0,1-2.13-.44A3.38,3.38,0,0,1,96,88.58a3.43,3.43,0,0,1-.52-1.9,2.84,2.84,0,0,1,1-2.37,4.56,4.56,0,0,1,2.85-.81h3.82V83a2.08,2.08,0,0,0-.66-1.62,2.4,2.4,0,0,0-1.68-.6,7.16,7.16,0,0,0-1.63.19,4.83,4.83,0,0,0-1.42.52.84.84,0,0,1-.32.07.33.33,0,0,1-.35-.19l-.62-1.2a.56.56,0,0,1,0-.23.57.57,0,0,1,.37-.51,6.62,6.62,0,0,1,1.86-.73,9.66,9.66,0,0,1,2.18-.25A6.41,6.41,0,0,1,103.48,78.92Zm-1.75,8.79a2.48,2.48,0,0,0,1-.85,2.06,2.06,0,0,0,.38-1.2v-.28H99.68a1.65,1.65,0,0,0-1.06.3,1.05,1.05,0,0,0-.38.85,1.25,1.25,0,0,0,.61,1.07,2.55,2.55,0,0,0,1.5.42A3.07,3.07,0,0,0,101.73,87.71Z"/><path class="cls-1" d="M124.08,79a3.72,3.72,0,0,1,1.42,1.73,7.05,7.05,0,0,1,.48,2.73v6.08a.36.36,0,0,1-.1.28.33.33,0,0,1-.26.1h-2.08a.37.37,0,0,1-.27-.11.33.33,0,0,1-.1-.27v-6.1a2.86,2.86,0,0,0-.26-1.24,2,2,0,0,0-.73-.83,1.89,1.89,0,0,0-1.05-.29,2.41,2.41,0,0,0-1.21.3,2.11,2.11,0,0,0-.84.86,2.75,2.75,0,0,0-.3,1.31v6a.37.37,0,0,1-.1.27.38.38,0,0,1-.28.11h-2.06a.37.37,0,0,1-.27-.11.33.33,0,0,1-.1-.27v-6.1a2.74,2.74,0,0,0-.27-1.25,1.94,1.94,0,0,0-.73-.82,1.89,1.89,0,0,0-1-.29,2.21,2.21,0,0,0-1.2.33,2.17,2.17,0,0,0-.82.9,3,3,0,0,0-.29,1.33v5.9c0,.25-.12.38-.36.38h-2.06c-.24,0-.36-.13-.36-.38V79.09a.36.36,0,0,1,.09-.26.37.37,0,0,1,.28-.1h1.64a.32.32,0,0,1,.36.23l.22,1.15a3.9,3.9,0,0,1,1.39-1.26,3.81,3.81,0,0,1,1.83-.45,4.13,4.13,0,0,1,2.18.56,3.58,3.58,0,0,1,1.41,1.65A3.77,3.77,0,0,1,119.7,79a4.33,4.33,0,0,1,4.38,0Z"/><path class="cls-1" d="M136.17,78.92a4,4,0,0,1,2.43,3.82v6.79a.4.4,0,0,1-.1.28.33.33,0,0,1-.26.11h-1.58a.24.24,0,0,1-.18-.07.23.23,0,0,1-.11-.15l-.2-1.14a4.08,4.08,0,0,1-1.57,1.25,5.61,5.61,0,0,1-2.36.46,5,5,0,0,1-2.13-.44,3.44,3.44,0,0,1-1.46-1.25,3.51,3.51,0,0,1-.52-1.9,2.84,2.84,0,0,1,1-2.37A4.56,4.56,0,0,1,132,83.5h3.81V83a2.08,2.08,0,0,0-.66-1.62,2.38,2.38,0,0,0-1.67-.6,7,7,0,0,0-1.63.19,4.9,4.9,0,0,0-1.43.52.81.81,0,0,1-.32.07.33.33,0,0,1-.35-.19l-.62-1.2a.56.56,0,0,1-.05-.23.59.59,0,0,1,.38-.51,6.39,6.39,0,0,1,1.86-.73,9.58,9.58,0,0,1,2.17-.25A6.46,6.46,0,0,1,136.17,78.92Zm-1.76,8.79a2.51,2.51,0,0,0,1-.85,2.05,2.05,0,0,0,.37-1.2v-.28h-3.44a1.65,1.65,0,0,0-1.06.3,1,1,0,0,0-.37.85,1.24,1.24,0,0,0,.6,1.07A2.6,2.6,0,0,0,133,88,3,3,0,0,0,134.41,87.71Z"/><circle class="cls-2" cx="69.31" cy="33.85" r="32.38"/><line class="cls-2" x1="69.31" y1="32.73" x2="69.31" y2="12.88"/><line class="cls-2" x1="88.67" y1="33.85" x2="61.15" y2="33.85"/><line class="cls-2" x1="69.31" y1="37.69" x2="69.31" y2="53.56"/><line class="cls-2" x1="49.21" y1="33.85" x2="57.51" y2="33.85"/><rect class="cls-2" x="51.17" y="14.35" width="12.68" height="12.68"/><rect class="cls-2" x="50.91" y="39.29" width="12.68" height="12.68"/><rect class="cls-2" x="74.52" y="39.29" width="12.68" height="12.68"/><rect class="cls-2" x="74.52" y="14.35" width="12.68" height="12.68"/><path class="cls-3" d="M15.52,111.74l1-.57c.67,1.24,1.45,1.86,2.33,1.86a2.2,2.2,0,0,0,1.06-.27,1.82,1.82,0,0,0,.75-.7,1.78,1.78,0,0,0,.26-.94A1.86,1.86,0,0,0,20.5,110a9,9,0,0,0-1.92-1.8,9.65,9.65,0,0,1-1.75-1.54,2.79,2.79,0,0,1-.6-1.72,2.64,2.64,0,0,1,.35-1.33,2.58,2.58,0,0,1,1-1,2.9,2.9,0,0,1,1.39-.35,3,3,0,0,1,1.48.39,5.22,5.22,0,0,1,1.47,1.45l-.92.7a4.37,4.37,0,0,0-1.08-1.11,1.84,1.84,0,0,0-1-.27,1.58,1.58,0,0,0-1.12.41,1.4,1.4,0,0,0-.43,1,1.63,1.63,0,0,0,.16.71,2.53,2.53,0,0,0,.55.75c.15.14.63.51,1.45,1.12a8.3,8.3,0,0,1,2,1.92,3.09,3.09,0,0,1,.54,1.69,2.86,2.86,0,0,1-.93,2.12,3.12,3.12,0,0,1-2.26.9,3.24,3.24,0,0,1-1.85-.55A4.9,4.9,0,0,1,15.52,111.74Z"/><path class="cls-3" d="M24,113.84l1.61-11.24h.18l4.57,9.22,4.52-9.22H35l1.62,11.24h-1.1l-1.11-8-4,8h-.29l-4-8.1-1.1,8.1Z"/><path class="cls-3" d="M43.44,102.6l5.24,11.24H47.46l-1.76-3.7H40.86l-1.75,3.7H37.85l5.31-11.24ZM43.29,105l-1.92,4.07h3.84Z"/><path class="cls-3" d="M50.48,102.6h2.24a12.67,12.67,0,0,1,2.53.16,2.89,2.89,0,0,1,1.63,1,2.78,2.78,0,0,1,.62,1.85,3,3,0,0,1-.43,1.62,2.71,2.71,0,0,1-1.23,1.05,5.7,5.7,0,0,1-2.22.36l4,5.22H56.28l-4-5.22H51.6v5.22H50.48Zm1.12,1.1v3.82l1.94,0a4.82,4.82,0,0,0,1.66-.22,1.72,1.72,0,0,0,.84-.68,1.89,1.89,0,0,0,.3-1,1.85,1.85,0,0,0-.3-1,1.68,1.68,0,0,0-.81-.66,4.91,4.91,0,0,0-1.65-.2Z"/><path class="cls-3" d="M58.8,103.7v-1.1H65v1.1h-2.5v10.14H61.3V103.7Z"/><path class="cls-3" d="M70.91,102.6h6.44v1.1H72v3.52H77.3v1.1H72v4.42H77.3v1.1H70.91Z"/><path class="cls-3" d="M78.43,102.6h1.22l3.73,8.68,3.78-8.68h1.22l-4.89,11.24h-.24Z"/><path class="cls-3" d="M90.28,102.6h6.43v1.1H91.4v3.52h5.27v1.1H91.4v4.42h5.27v1.1H90.28Z"/><path class="cls-3" d="M98.66,113.84V102.6h.25l7.47,8.61V102.6h1.11v11.24h-.25l-7.42-8.51v8.51Z"/><path class="cls-3" d="M109.11,103.7v-1.1h6.16v1.1h-2.51v10.14h-1.15V103.7Z"/><path class="cls-3" d="M115.72,111.74l1-.57c.67,1.24,1.45,1.86,2.33,1.86a2.2,2.2,0,0,0,1.06-.27,1.91,1.91,0,0,0,.76-.7,1.85,1.85,0,0,0-.13-2,9,9,0,0,0-1.92-1.8,9.65,9.65,0,0,1-1.75-1.54,2.79,2.79,0,0,1-.6-1.72,2.55,2.55,0,0,1,.36-1.33,2.49,2.49,0,0,1,1-1,2.9,2.9,0,0,1,1.39-.35,3,3,0,0,1,1.49.39,5.34,5.34,0,0,1,1.46,1.45l-.92.7a4.37,4.37,0,0,0-1.08-1.11,1.84,1.84,0,0,0-1-.27,1.53,1.53,0,0,0-1.11.41,1.37,1.37,0,0,0-.44,1,1.79,1.79,0,0,0,.16.71,2.53,2.53,0,0,0,.55.75c.15.14.64.51,1.46,1.12a8.22,8.22,0,0,1,2,1.92,3.09,3.09,0,0,1,.54,1.69,2.86,2.86,0,0,1-.93,2.12,3.12,3.12,0,0,1-2.26.9,3.24,3.24,0,0,1-1.85-.55A4.9,4.9,0,0,1,115.72,111.74Z"/></g></g></svg>